<?xml version="1.0" encoding="UTF-8" standalone="no" ?>
<!DOCTYPE svg PUBLIC "-//W3C//DTD SVG 1.1//EN" "http://www.w3.org/Graphics/SVG/1.1/DTD/svg11.dtd">
<svg xmlns="http://www.w3.org/2000/svg" xmlns:xlink="http://www.w3.org/1999/xlink" version="1.1" width="1080" height="1080" viewBox="0 0 1080 1080" xml:space="preserve">
<desc>Created with Fabric.js 5.2.4</desc>
<defs>
</defs>
<g transform="matrix(1 0 0 1 540 540)" id="520cfc34-6e38-4b20-8623-c8ca6ddeaa2d"  >
<rect style="stroke: none; stroke-width: 1; stroke-dasharray: none; stroke-linecap: butt; stroke-dashoffset: 0; stroke-linejoin: miter; stroke-miterlimit: 4; fill: rgb(255,255,255); fill-rule: nonzero; opacity: 1; visibility: hidden;" vector-effect="non-scaling-stroke"  x="-540" y="-540" rx="0" ry="0" width="1080" height="1080" />
</g>
<g transform="matrix(1 0 0 1 540 540)" id="820bd987-8e76-4548-9e96-2bf2ebd23441"  >
</g>
<g transform="matrix(1 0 0 1 540 540)"  >
<g style="opacity: 1;" vector-effect="non-scaling-stroke"   >
		<g transform="matrix(2.59 0 0 2.59 0 0)"  >
<path style="stroke: none; stroke-width: 1; stroke-dasharray: none; stroke-linecap: butt; stroke-dashoffset: 0; stroke-linejoin: miter; stroke-miterlimit: 4; fill: rgb(147,20,20); fill-rule: nonzero; opacity: 1;" vector-effect="non-scaling-stroke"  transform=" translate(-178.28, -26.85)" d="M 53.25 10.35 L 53.25 46.050000000000004 L 73.2 46.050000000000004 L 70.5 52.95 L 44.55 52.95 L 44.55 10.350000000000001 L 53.25 10.350000000000001 M 221.25 29.700000000000003 C 226.8 27.6 233.25 22.800000000000004 233.25 14.850000000000003 C 233.25 4.950000000000003 224.7 3.552713678800501e-15 212.55 3.552713678800501e-15 L 196.65 3.552713678800501e-15 L 196.65 52.95 L 206.1 52.95 L 206.1 31.2 L 211.65 31.2 L 226.35 52.95 L 237 52.95 z M 210.75 24.450000000000003 L 206.1 24.450000000000003 L 206.1 6.3 L 211.95 6.3 C 219.6 6.3 223.79999999999998 8.7 223.79999999999998 15.3 C 223.79999999999998 22.35 218.7 24.450000000000003 210.74999999999997 24.450000000000003 M 89.84999999999997 10.350000000000003 L 91.19999999999996 13.650000000000002 L 74.69999999999996 52.95 L 82.79999999999995 52.95 L 86.39999999999995 44.25 L 105.14999999999995 44.25 L 108.89999999999995 52.95 L 118.49999999999994 52.95 L 99.59999999999994 10.350000000000001 z M 89.1 37.8 L 95.55 22.049999999999997 L 102.14999999999999 37.8 L 89.1 37.8 M 28.05 24.6 C 32.7 23.1 37.2 19.5 37.2 12.900000000000002 C 37.2 0 21.6 0 16.65 0 L 0 0 L 0 52.95 L 15.9 52.95 C 25.200000000000003 52.95 40.2 50.7 40.2 37.650000000000006 C 40.2 30.450000000000006 35.85 25.800000000000004 28.050000000000004 24.600000000000005 z M 15.45 6.45 C 22.5 6.45 27.299999999999997 7.2 27.299999999999997 13.5 C 27.299999999999997 22.05 18.599999999999998 21.6 14.399999999999997 21.6 L 9.6 21.6 L 9.6 6.3 z M 15.6 46.050000000000004 L 9.6 45.900000000000006 L 9.6 28.5 L 15.149999999999999 28.5 C 23.549999999999997 28.5 30.299999999999997 29.7 30.299999999999997 37.2 C 30.299999999999997 44.550000000000004 24.749999999999996 46.050000000000004 15.599999999999998 46.050000000000004 M 156.45 10.350000000000001 L 165.29999999999998 10.350000000000001 L 165.29999999999998 52.95 L 156.45 52.95 z M 183.75 10.350000000000001 L 165.75 30.75 L 183.9 52.95 L 193.95000000000002 52.95 L 175.65 30.300000000000004 L 192.6 10.350000000000005 L 183.75 10.350000000000005 M 116.55 30.300000000000004 C 116.55 44.25 125.25 53.7 137.1 53.7 C 143.25 53.7 147.29999999999998 52.2 151.35 49.35 L 149.25 45.15 C 145.8 46.8 142.8 47.699999999999996 139.35 47.699999999999996 C 131.7 47.699999999999996 126.14999999999999 42.15 126.14999999999999 30.599999999999994 C 126.14999999999999 21.299999999999994 129.6 15.749999999999995 136.2 15.749999999999995 C 139.79999999999998 15.749999999999995 142.79999999999998 16.949999999999996 144 20.549999999999994 L 151.65 18.599999999999994 C 150.9 15.599999999999994 146.85 9.749999999999995 135.75 9.749999999999995 C 125.55 9.749999999999995 116.55 16.649999999999995 116.55 30.299999999999997 M 318.9 10.35 L 327.59999999999997 10.35 L 327.59999999999997 52.95 L 318.9 52.95 z M 346.2 10.35 L 328.05 30.75 L 346.2 52.95 L 356.55 52.95 L 338.1 30.3 L 355.05 10.350000000000001 L 346.2 10.350000000000001 M 278.85 30.3 C 278.85 44.25 287.40000000000003 53.7 299.1 53.7 C 305.40000000000003 53.7 309.6 52.2 313.5 49.35 L 311.4 45.15 C 307.95 46.8 304.95 47.699999999999996 301.34999999999997 47.699999999999996 C 293.7 47.699999999999996 288.29999999999995 42.15 288.29999999999995 30.599999999999994 C 288.29999999999995 21.299999999999994 291.74999999999994 15.749999999999995 298.49999999999994 15.749999999999995 C 301.94999999999993 15.749999999999995 304.94999999999993 16.949999999999996 306.29999999999995 20.549999999999994 L 313.79999999999995 18.599999999999994 C 313.04999999999995 15.599999999999994 309.15 9.749999999999995 298.04999999999995 9.749999999999995 C 287.69999999999993 9.749999999999995 278.84999999999997 16.649999999999995 278.84999999999997 30.299999999999997" stroke-linecap="round" />
</g>
		<g transform="matrix(2.59 0 0 2.59 199.41 12.62)"  >
<path style="stroke: none; stroke-width: 1; stroke-dasharray: none; stroke-linecap: butt; stroke-dashoffset: 0; stroke-linejoin: miter; stroke-miterlimit: 4; fill: rgb(147,20,20); fill-rule: nonzero; opacity: 1;" vector-effect="non-scaling-stroke"  transform=" translate(-255.3, -31.73)" d="M 255.3 9.75 C 243.75 9.75 235.35000000000002 16.65 235.35000000000002 31.65 C 235.35000000000002 46.65 243.3 53.7 255.3 53.7 C 267.3 53.7 275.25 46.650000000000006 275.25 31.650000000000002 C 275.25 16.65 266.85 9.750000000000004 255.3 9.750000000000004 z M 255.3 47.7 C 246.45000000000002 47.7 244.35000000000002 40.5 244.35000000000002 31.650000000000002 C 244.35000000000002 22.950000000000003 246.45000000000002 15.450000000000003 255.3 15.450000000000003 C 264.15 15.450000000000003 266.25 22.950000000000003 266.25 31.650000000000002 C 266.25 40.5 264.15 47.7 255.3 47.7" stroke-linecap="round" />
</g>
</g>
</g>
</svg>