<svg xmlns="http://www.w3.org/2000/svg" xmlns:xlink="http://www.w3.org/1999/xlink" viewBox="0 0 61 81" fill="#fff" fill-rule="evenodd" stroke="#000" stroke-linecap="round" stroke-linejoin="round"><use xlink:href="#A" x=".5" y=".5"/><symbol id="A" overflow="visible"><g stroke="none"><path d="M51.148 9.619h0C33.115 7.695 30 0 30 0S25.902 9.94 0 9.94v41.042c0 4.97 2.787 9.619 6.721 13.627h0C15.574 73.748 30 80 30 80s30-12.826 30-29.018V9.94c-3.279 0-6.23-.16-8.852-.321z" fill="#0078d7"/><path d="M41.967 39.279h-1.803v-5.772c0-2.725-.984-5.291-2.787-7.054h0l-.164-.16c-1.803-1.924-4.426-3.046-7.213-3.046s-5.41 1.282-7.213 3.046c-1.803 1.924-2.951 4.489-2.951 7.375v5.772h-1.803c-.656 0-1.311.641-1.311 1.283v11.543h0v3.527c0 .641.656 1.283 1.311 1.283h23.771c.656 0 1.311-.641 1.311-1.283v-15.07c.164-.962-.492-1.443-1.147-1.443zm-6.557 0h-8.197 0-2.459v-5.772c0-1.603.656-3.046 1.639-4.168.984-.962 2.295-1.603 3.77-1.603s2.787.641 3.771 1.603c.164.321.492.481.656.802h0c.656.962.984 2.084.984 3.367-.164 0-.164 5.772-.164 5.772z"/></g></symbol></svg>